<svg id="Layer_1" data-name="Layer 1" xmlns="http://www.w3.org/2000/svg" viewBox="0 0 28 28"><defs><style>.cls-1{fill:#b96;}.cls-2{fill:#1a1a1a;}.cls-3{fill:#754;}.cls-4{fill:#e6e6e6;}</style></defs><title>email</title><path class="cls-1" d="M26,12V22.75A1.25,1.25,0,0,1,24.75,24H3.25A1.25,1.25,0,0,1,2,22.75V12l7.39,3.7.73.36,3.32,1.66a1.23,1.23,0,0,0,1.12,0l1.71-.86,1-.49h0l.4-.21.94-.47Z"/><polygon class="cls-2" points="17.27 16.37 17.25 16.37 17.67 16.16 17.27 16.37"/><path class="cls-3" d="M15,12.84a1.85,1.85,0,0,1,.45,1.28A2,2,0,0,1,15,15.44a1.46,1.46,0,0,1-1.19.55,1.44,1.44,0,0,1-1.19-.56,2,2,0,0,1-.44-1.31,1.92,1.92,0,0,1,.44-1.27,1.49,1.49,0,0,1,1.18-.51A1.55,1.55,0,0,1,15,12.84Z"/><path class="cls-3" d="M18.24,14.39a2.94,2.94,0,0,1-.31,1.43,1.33,1.33,0,0,1-.26.34l-.4.21h0q-.66,0-.66-.84V11.34H15.44v.81a1.75,1.75,0,0,0-.71-.69,2,2,0,0,0-1-.29,2.47,2.47,0,0,0-2,.87A3.12,3.12,0,0,0,11,14.17a2.93,2.93,0,0,0,.78,2.1,2.42,2.42,0,0,0,1.82.83,2.24,2.24,0,0,0,2.15-1.55,1.78,1.78,0,0,0,.37,1.15,1.29,1.29,0,0,0,.17.16l-1.71.86a1.23,1.23,0,0,1-1.12,0l-3.32-1.66a4.09,4.09,0,0,1-.43-1.9,4.39,4.39,0,0,1,4.4-4.35,3.77,3.77,0,0,1,3,1.33A4.79,4.79,0,0,1,18.24,14.39Z"/><path class="cls-3" d="M18.61,15.69a4.18,4.18,0,0,0,.23-1.48,4.87,4.87,0,0,0-1.39-3.5A4.57,4.57,0,0,0,14,9.28a4.88,4.88,0,0,0-4.88,4.88,5.07,5.07,0,0,0,.23,1.54L2,12,13.44,4.28a1.23,1.23,0,0,1,1.12,0L26,12Z"/><rect class="cls-4" x="2.4" y="20" width="10" height="1" rx="0.5" ry="0.5" transform="translate(-9.26 6.44) rotate(-30)"/><rect class="cls-4" x="15.6" y="20" width="10" height="1" rx="0.5" ry="0.5" transform="translate(28.2 48.56) rotate(-150)"/></svg>