<svg id="Layer_1" data-name="Layer 1" xmlns="http://www.w3.org/2000/svg" viewBox="0 0 168 168"><defs><style>.cls-1{fill:#231f20;}</style></defs><title>portfolio</title><circle class="cls-1" cx="84" cy="92" r="14"/><path class="cls-1" d="M146,50H129.84c-2.2-3-3.84-7.39-3.84-14a8,8,0,0,0-8-8H50a8,8,0,0,0-8,8c0,6.61-1.53,11-3.58,14H22a8,8,0,0,0-8,8v68a8,8,0,0,0,8,8H42a6,6,0,0,0,6,6h72a6,6,0,0,0,6-6h20a8,8,0,0,0,8-8V58A8,8,0,0,0,146,50ZM63.11,89.86a21,21,0,1,1,23,23A21.05,21.05,0,0,1,63.11,89.86Z"/><circle class="cls-1" cx="84" cy="92" r="14"/><circle class="cls-1" cx="84" cy="92" r="14"/></svg>