<svg id="Layer_1" data-name="Layer 1" xmlns="http://www.w3.org/2000/svg" viewBox="0 0 168 168"><defs><style>.cls-1{fill:#231f20;}</style></defs><title>pricing</title><path class="cls-1" d="M84,14a70,70,0,1,0,70,70A70,70,0,0,0,84,14ZM81.94,73.83a50,50,0,0,0,8.45,2.78,85.93,85.93,0,0,1,10.85,3.52,19.9,19.9,0,0,1,7.43,5.43,14.18,14.18,0,0,1,3.16,9.61,15.39,15.39,0,0,1-5.48,12.35q-5.46,4.64-14.36,5.8V126H78.74V113.16A56.31,56.31,0,0,1,66.51,110a42.11,42.11,0,0,1-10.37-5.68l6.94-13.1A42.22,42.22,0,0,0,74.6,97.62a33.62,33.62,0,0,0,11.7,2.61A8.71,8.71,0,0,0,91,99.15a3.43,3.43,0,0,0,1.69-3.07q0-2.4-2.75-3.68a49.14,49.14,0,0,0-8.55-2.7,83,83,0,0,1-10.76-3.27,19.14,19.14,0,0,1-7.38-5.26,13.76,13.76,0,0,1-3.11-9.37A15.66,15.66,0,0,1,65.08,60Q70,55.31,78.74,53.9V41.72H92V53.65A56.66,56.66,0,0,1,102.8,56a45.16,45.16,0,0,1,9.2,4.1l-6.85,13.26a63,63,0,0,0-10.93-4.64,33.69,33.69,0,0,0-9.79-1.9,7.05,7.05,0,0,0-3.78.87,2.81,2.81,0,0,0-1.38,2.53C79.27,71.77,80.16,73,81.94,73.83Z"/></svg>