<svg id="Layer_1" data-name="Layer 1" xmlns="http://www.w3.org/2000/svg" viewBox="0 0 370 370"><defs><style>.cls-1{opacity:0.75;}.cls-2,.cls-3,.cls-4,.cls-5{fill:#f2f2f2;}.cls-3{font-size:33.25px;font-family:Montserrat-Bold, Montserrat;font-weight:700;}.cls-4,.cls-5{font-size:25.84px;}.cls-4{font-family:Montserrat-Regular, Montserrat;}.cls-5{font-family:Raleway, Raleway;}</style></defs><title>pap-logo</title><rect class="cls-1" x="54.19" y="54.19" width="261.63" height="261.63" transform="translate(446.63 185) rotate(135)"/><path class="cls-2" d="M194.92,152.67H123a70.69,70.69,0,0,1,50.32-36.89Z"/><path class="cls-2" d="M239.73,140.34l-21.38,37-36.74-62.61c1.25-.06,2.51-.1,3.78-.1A70.17,70.17,0,0,1,239.73,140.34Z"/><path class="cls-2" d="M255.73,185a71.28,71.28,0,0,1-4.47,24.7H208.54l36.13-62.58A70,70,0,0,1,255.73,185Z"/><path class="cls-2" d="M247.84,217.67v-.13a70.48,70.48,0,0,1-51.48,37.15l-21.1-37Z"/><path class="cls-2" d="M188,255.29q-1.29,0-2.59,0A70.18,70.18,0,0,1,131,229.56l21.38-36.9Z"/><path class="cls-2" d="M162.24,160.67,126,222.95a69.65,69.65,0,0,1-11-37.66,67,67,0,0,1,4.47-24.63Z"/><text class="cls-3" transform="translate(173.75 194.97)">P</text><text class="cls-4" transform="matrix(0.57, -0.82, 0.82, 0.57, 114.06, 146.66)">P</text><text class="cls-4" transform="translate(125.92 129.96) rotate(-40)">U</text><text class="cls-4" transform="matrix(0.91, -0.41, 0.41, 0.91, 143.5, 115.78)">R</text><text class="cls-4" transform="translate(163.38 107.35) rotate(-9.48)">E</text><text class="cls-4" transform="translate(183.14 104.81) rotate(1.18)"> </text><text class="cls-4" transform="translate(193.32 104.71) rotate(12.69)">A</text><text class="cls-4" transform="translate(214.65 109.93) rotate(28.3)">R</text><text class="cls-4" transform="translate(233.23 120.52) rotate(42.37)">T</text><text class="cls-4" transform="matrix(0.56, 0.83, -0.83, 0.56, 246.7, 133.22)">S</text><text class="cls-5" transform="matrix(0.56, 0.83, -0.83, 0.56, 98.19, 233.41)">P</text><text class="cls-5" transform="matrix(0.72, 0.69, -0.69, 0.72, 109.77, 250.14)">H</text><text class="cls-5" transform="translate(127.23 266.06) rotate(29.9)">O</text><text class="cls-5" transform="matrix(0.95, 0.3, -0.3, 0.95, 147.3, 276.97)">T</text><text class="cls-5" transform="translate(165.7 282.66) rotate(5.48)">O</text><text class="cls-5" transform="matrix(0.99, -0.14, 0.14, 0.99, 189.64, 284.38)">G</text><text class="cls-5" transform="translate(212.33 280.62) rotate(-20.88)">R</text><text class="cls-5" transform="translate(231.88 272.72) rotate(-33.23)">A</text><text class="cls-5" transform="matrix(0.7, -0.71, 0.71, 0.7, 249.77, 260.38)">P</text><text class="cls-5" transform="translate(263.36 246.14) rotate(-56.71)">Y</text></svg>